HIERARCHY
ROOT Hips
{
	OFFSET 0.00000 0.00000 0.00000
	CHANNELS 6 Xposition Yposition Zposition Zrotation Yrotation Xrotation 
	JOINT LHipJoint
	{
		OFFSET 0 0 0
		CHANNELS 3 Zrotation Yrotation Xrotation
		JOINT LeftUpLeg
		{
			OFFSET 1.81638 -1.86202 0.89635
			CHANNELS 3 Zrotation Yrotation Xrotation
			JOINT LeftLeg
			{
				OFFSET 2.63464 -7.23861 0.00000
				CHANNELS 3 Zrotation Yrotation Xrotation
				JOINT LeftFoot
				{
					OFFSET 2.45871 -6.75336 0.00000
					CHANNELS 3 Zrotation Yrotation Xrotation
					JOINT LeftToeBase
					{
						OFFSET 0.34235 -0.94059 2.20020
						CHANNELS 3 Zrotation Yrotation Xrotation
						End Site
						{
							OFFSET 0.00000 -0.00000 1.18611
						}
					}
				}
			}
		}
	}
	JOINT RHipJoint
	{
		OFFSET 0 0 0
		CHANNELS 3 Zrotation Yrotation Xrotation
		JOINT RightUpLeg
		{
			OFFSET -1.84405 -1.86203 0.89635
			CHANNELS 3 Zrotation Yrotation Xrotation
			JOINT RightLeg
			{
				OFFSET -2.71067 -7.44751 0.00000
				CHANNELS 3 Zrotation Yrotation Xrotation
				JOINT RightFoot
				{
					OFFSET -2.47159 -6.79060 0.00000
					CHANNELS 3 Zrotation Yrotation Xrotation
					JOINT RightToeBase
					{
						OFFSET -0.26223 -0.72048 2.36007
						CHANNELS 3 Zrotation Yrotation Xrotation
						End Site
						{
							OFFSET -0.00000 -0.00000 1.23343
						}
					}
				}
			}
		}
	}
	JOINT LowerBack
	{
		OFFSET 0 0 0
		CHANNELS 3 Zrotation Yrotation Xrotation
		JOINT Spine
		{
			OFFSET 0.02089 1.99248 -0.22512
			CHANNELS 3 Zrotation Yrotation Xrotation
			JOINT Spine1
			{
				OFFSET 0.01476 2.01356 -0.03079
				CHANNELS 3 Zrotation Yrotation Xrotation
				JOINT Neck
				{
					OFFSET 0 0 0
					CHANNELS 3 Zrotation Yrotation Xrotation
					JOINT Neck1
					{
						OFFSET 0.04846 1.65098 0.06663
						CHANNELS 3 Zrotation Yrotation Xrotation
						JOINT Head
						{
							OFFSET -0.06061 1.60634 -0.07565
							CHANNELS 3 Zrotation Yrotation Xrotation
							End Site
							{
								OFFSET -0.02954 1.73562 -0.03642
							}
						}
					}
				}
				JOINT LeftShoulder
				{
					OFFSET 0 0 0
					CHANNELS 3 Zrotation Yrotation Xrotation
					JOINT LeftArm
					{
						OFFSET 3.45234 1.47051 -0.06993
						CHANNELS 3 Zrotation Yrotation Xrotation
						JOINT LeftForeArm
						{
							OFFSET 5.49313 -0.00000 0.00000
							CHANNELS 3 Zrotation Yrotation Xrotation
							JOINT LeftHand
							{
								OFFSET 3.29037 -0.00000 0.00000
								CHANNELS 3 Zrotation Yrotation Xrotation
								JOINT LeftFingerBase
								{
									OFFSET 0 0 0
									CHANNELS 3 Zrotation Yrotation Xrotation
									JOINT LeftHandIndex1
									{
										OFFSET 0.72966 -0.00000 0.00000
										CHANNELS 3 Zrotation Yrotation Xrotation
										End Site
										{
											OFFSET 0.58827 -0.00000 0.00000
										}
									}
								}
								JOINT LThumb
								{
									OFFSET 0 0 0
									CHANNELS 3 Zrotation Yrotation Xrotation
									End Site
									{
										OFFSET 0.59725 -0.00000 0.59725
									}
								}
							}
						}
					}
				}
				JOINT RightShoulder
				{
					OFFSET 0 0 0
					CHANNELS 3 Zrotation Yrotation Xrotation
					JOINT RightArm
					{
						OFFSET -3.41935 1.44327 0.20453
						CHANNELS 3 Zrotation Yrotation Xrotation
						JOINT RightForeArm
						{
							OFFSET -5.23684 -0.00000 0.00000
							CHANNELS 3 Zrotation Yrotation Xrotation
							JOINT RightHand
							{
								OFFSET -3.38251 -0.00000 0.00000
								CHANNELS 3 Zrotation Yrotation Xrotation
								JOINT RightFingerBase
								{
									OFFSET 0 0 0
									CHANNELS 3 Zrotation Yrotation Xrotation
									JOINT RightHandIndex1
									{
										OFFSET -0.69145 -0.00000 0.00000
										CHANNELS 3 Zrotation Yrotation Xrotation
										End Site
										{
											OFFSET -0.55747 -0.00000 0.00000
										}
									}
								}
								JOINT RThumb
								{
									OFFSET 0 0 0
									CHANNELS 3 Zrotation Yrotation Xrotation
									End Site
									{
										OFFSET -0.56598 -0.00000 0.56598
									}
								}
							}
						}
					}
				}
			}
		}
	}
}
MOTION
Frames: 7
Frame Time: .0083333
-34.0445 18.2345 -21.693 0 0 0 0 0 0 -21 0 0 0 0 0 0 0 0 0 0 0 0 0 0 21 0 0 0 0 0 0 0 0 0 0 0 0 0 0 0 0 0 0 0 0 0 0 -16 0 0 21 0 0 11 0 0 0 -8 0 0 0 0 0 0 0 0 0 0 0 0 0 0 0 0 0 0 0 0 8 0 0 0 0 0 0 0 0 0 0 0 0 0 0 0 0 0
-34.0445 18.2345 -21.6930 -95.7723 86.5461 -79.8076 0.0000 0.0000 0.0000 -14.8542 -14.3353 -10.7451 1.8245 8.4906 24.2143 -0.1096 -17.0329 -10.8700 0.8144 5.7587 16.0857 0.0000 0.0000 0.0000 16.8451 13.9932 -24.4465 -2.4384 -9.7251 28.0909 -0.7048 17.6845 -18.2438 -0.1905 -2.8111 7.7534 -1.2419 -4.8697 11.8110 1.4524 -6.2291 6.6196 2.8690 -3.0533 0.6359 -0.4137 2.4275 -5.1422 -0.5786 3.4093 -8.4284 -0.1146 1.8046 -1.7530 0.0000 -0.0000 0.0000 -76.5612 4.5215 23.4262 53.6178 -54.3543 -29.0894 -0.0000 0.0000 -6.4753 9.7468 10.0717 1.7206 -7.1250 0.0000 -0.0000 -15.0258 39.7479 1.9974 0.0000 -0.0000 0.0000 73.7727 -20.8894 50.8440 -28.1848 39.2858 -10.2405 0.0000 -0.0000 -2.2370 -12.8828 -14.5321 3.2846 7.1250 -0.0000 -0.0000 13.4769 -44.4420 0.1892
-33.9087 18.2172 -21.5363 -56.5460 84.7891 -42.9296 0.0000 0.0000 0.0000 -14.7496 -10.1579 -7.6404 1.7158 8.2471 23.4672 -0.1574 -17.0043 -10.3457 1.6407 8.0738 22.9386 0.0000 0.0000 0.0000 18.4726 16.9774 -21.0088 -2.2388 -9.3467 26.8860 -0.7007 16.3857 -17.6408 -0.0359 -1.2237 3.3646 -3.5912 -3.3862 13.9617 1.7577 -4.4930 7.2680 4.4432 -2.2389 0.2987 -0.3356 2.4164 -5.2867 -0.7902 3.3796 -8.3244 -0.1894 1.7899 -1.6898 0.0000 0.0000 0.0000 -76.3650 4.5964 23.4889 54.5532 -54.6746 -29.8511 -0.0000 0.0000 -6.6632 9.7899 9.9386 1.7058 -7.1250 0.0000 -0.0000 -14.9569 39.6212 2.0357 0.0000 0.0000 0.0000 73.7506 -21.0430 50.8435 -28.1369 39.2420 -10.2102 0.0000 -0.0000 -2.2207 -12.6649 -14.5968 3.2413 7.1250 -0.0000 -0.0000 13.6904 -44.4811 0.1788
-33.7805 18.1982 -21.4161 -46.5168 83.8018 -33.9199 0.0000 0.0000 0.0000 -14.6485 -7.6248 -6.0413 1.6163 8.0164 22.7640 -0.2698 -17.5321 -9.5788 2.0691 9.0085 25.8220 0.0000 0.0000 0.0000 19.2535 18.8686 -19.2815 -2.0871 -9.0452 25.9367 -0.7229 15.4915 -17.4437 -0.0012 -0.2199 0.6042 -5.3200 -2.5953 14.6861 2.0502 -3.6585 7.5557 5.6610 -1.8766 0.2920 -0.2549 2.3784 -5.4836 -1.0554 3.3100 -8.1144 -0.2791 1.7543 -1.5835 -0.0000 0.0000 0.0000 -76.1897 4.7158 23.6251 55.7773 -55.0755 -30.8524 -0.0000 0.0000 -6.3916 9.1829 10.7892 1.7334 -7.1250 0.0000 -0.0000 -15.6856 40.4005 1.8303 -0.0000 0.0000 0.0000 73.7126 -21.2068 50.8163 -28.0597 39.1711 -10.1614 0.0000 -0.0000 -2.1709 -12.6104 -14.7155 3.2525 7.1250 -0.0000 -0.0000 13.7740 -44.5924 0.1414
-33.6618 18.2232 -21.3998 -46.6074 83.9253 -33.9174 0.0000 0.0000 0.0000 -14.7100 -7.4352 -5.5203 1.5329 7.8166 22.1583 -0.3134 -17.5042 -9.0673 2.0049 8.8762 25.4089 0.0000 0.0000 0.0000 18.8989 19.9410 -19.5291 -1.9445 -8.7495 25.0148 -0.7100 15.3640 -17.2902 -0.0126 -0.7253 1.9934 -5.1677 -2.6293 14.5660 2.1479 -3.6840 7.4838 5.6769 -1.8869 0.2776 -0.1856 2.3310 -5.5949 -1.3180 3.2288 -7.9558 -0.3680 1.7132 -1.5091 -0.0000 0.0000 0.0000 -76.1008 4.7268 23.8745 56.1148 -55.1825 -31.1292 -0.0000 0.0000 -7.0364 9.7680 9.5011 1.6277 -7.1250 0.0000 -0.0000 -14.8706 39.1915 2.1850 -0.0000 0.0000 0.0000 73.6949 -21.3873 50.6800 -27.9939 39.1106 -10.1198 0.0000 -0.0000 -2.1706 -12.5606 -14.6191 3.2186 7.1250 -0.0000 -0.0000 13.7904 -44.4913 0.1766
-33.5456 18.2287 -21.4061 -49.4153 84.4586 -36.4564 0.0000 0.0000 0.0000 -14.8468 -7.7160 -5.2576 1.4763 7.6774 21.7384 -0.3656 -17.6038 -8.5627 1.7802 8.3925 23.9127 0.0000 0.0000 0.0000 18.6637 19.7443 -20.0121 -1.8374 -8.5189 24.3015 -0.7460 14.7304 -17.3322 -0.0334 -1.1802 3.2449 -4.5287 -2.9170 14.3110 2.1836 -3.9822 7.3615 5.3781 -2.0179 0.2720 -0.0887 2.2946 -5.7109 -1.6807 3.1574 -7.8078 -0.4923 1.6774 -1.4359 0.0000 0.0000 0.0000 -76.0596 4.8305 24.0135 56.5092 -55.3056 -31.4533 -0.0000 0.0000 -7.0641 9.8471 9.3088 1.6083 -7.1250 0.0000 -0.0000 -14.7588 39.0093 2.2357 0.0000 0.0000 0.0000 73.6768 -21.4489 50.5690 -27.8476 38.9756 -10.0277 0.0000 -0.0000 -1.9790 -12.1953 -14.7052 3.1402 7.1250 -0.0000 -0.0000 14.1425 -44.5346 0.1659
-33.4272 18.2216 -21.3733 -47.8426 84.4366 -35.0958 0.0000 0.0000 0.0000 -14.9110 -7.0924 -4.6064 1.4366 7.5781 21.4398 -0.4271 -17.8222 -8.0571 1.8078 8.4536 24.1006 0.0000 0.0000 0.0000 18.7169 20.3685 -19.7798 -1.7445 -8.3124 23.6670 -0.7631 14.0652 -17.2281 -0.0371 -1.2435 3.4192 -4.6588 -2.8275 14.4516 2.2950 -3.8794 7.3842 5.5652 -1.9704 0.2284 0.0006 2.2601 -5.8302 -2.0063 3.0920 -7.6607 -0.6039 1.6441 -1.3639 -0.0000 0.0000 0.0000 -75.9951 4.9114 24.1642 56.9999 -55.4560 -31.8570 -0.0000 0.0000 -7.2102 9.9498 9.0271 1.5766 -7.1250 0.0000 -0.0000 -14.6072 38.7410 2.3105 -0.0000 0.0000 0.0000 73.6599 -21.5437 50.4605 -27.7263 38.8630 -9.9515 0.0000 -0.0000 -1.8608 -11.9731 -14.7354 3.0876 7.1250 -0.0000 -0.0000 14.3502 -44.5390 0.1668
